<svg width="24" height="24" viewBox="0 0 24 24" fill="none" xmlns="http://www.w3.org/2000/svg">
<path d="M21.13 16.99L21.84 16.28C22.23 15.89 22.23 15.26 21.84 14.87L21.13 14.16C20.74 13.77 20.11 13.77 19.72 14.16L19.01 14.87L21.13 16.99ZM20.42 17.7L15.41 22.71C15.23 22.89 14.97 23 14.71 23H13.5C13.22 23 13 22.78 13 22.5V21.29C13 21.02 13.11 20.77 13.29 20.58L18.3 15.57L20.42 17.7Z" fill="black"/>
<path fill-rule="evenodd" clip-rule="evenodd" d="M6 15H13V17H11H6V15ZM16 13H6V11H16V12V13ZM18 12V5H4V19H11V21H4C3.86 21 3.73 20.99 3.6 20.97C3.21 20.89 2.86 20.69 2.59 20.42C2.41 20.23 2.26 20.02 2.16 19.78C2.06 19.54 2 19.27 2 19V5C2 4.72 2.06 4.46 2.16 4.23C2.26 3.99 2.41 3.77 2.59 3.59C2.86 3.32 3.21 3.12 3.6 3.04C3.73 3.01 3.86 3 4 3H8.18C8.6 1.84 9.7 1 11 1C12.3 1 13.4 1.84 13.82 3H18C19.1 3 20 3.9 20 5V12H18ZM6 7H16V9H6V7ZM11 2.75C11.41 2.75 11.75 3.09 11.75 3.5C11.75 3.91 11.41 4.25 11 4.25C10.59 4.25 10.25 3.91 10.25 3.5C10.25 3.09 10.59 2.75 11 2.75Z" fill="black"/>
</svg>
